<svg width="721" height="720" viewBox="0 0 721 720" fill="none" xmlns="http://www.w3.org/2000/svg">
<mask id="mask0_756_14" style="mask-type:alpha" maskUnits="userSpaceOnUse" x="0" y="0" width="721" height="720">
<rect width="721" height="720" fill="#D9D9D9"/>
</mask>
<g mask="url(#mask0_756_14)">
<path d="M398.058 221.708L401.834 223.525L405.777 222.108L491.647 191.255L542.738 247.661L544.88 250.026L547.995 250.713L648.551 272.891L631.321 385.31L630.413 391.236L635.211 394.83L705.859 447.736L680.562 510.743L679.716 512.85L679.863 515.116L685.167 596.82L625.721 610.994L620.886 612.146L618.886 616.697L568.642 731H-10V102.391L35.7634 21.5367L92.3568 70.3787L94.398 72.1404L97.0481 72.6371L177.499 87.7158L178.139 87.8356L178.789 87.8716L273.788 93.1336L307.592 175.319L309.05 178.864L312.503 180.526L398.058 221.708Z" fill="black" stroke="#BE5D03" stroke-width="20"/>
</g>
</svg>
