<svg width="721" height="720" viewBox="0 0 721 720" fill="none" xmlns="http://www.w3.org/2000/svg">
<mask id="mask0_756_14" style="mask-type:alpha" maskUnits="userSpaceOnUse" x="0" y="0" width="721" height="720">
<rect width="721" height="720" fill="#D9D9D9"/>
</mask>
<g mask="url(#mask0_756_14)">
<path d="M399.793 218.104L402.058 219.194L404.424 218.344L492.814 186.585L545.702 244.975L546.987 246.394L548.857 246.807L653.073 269.792L635.275 385.916L634.73 389.472L637.609 391.628L710.715 446.375L684.274 512.233L683.766 513.497L683.855 514.857L689.378 599.928L626.649 614.885L623.748 615.576L622.548 618.306L571.253 735H-14V101.338L34.6847 15.322L94.9702 67.3505L96.1949 68.4075L97.785 68.7055L178.236 83.7842L178.62 83.8562L179.01 83.8777L276.528 89.2792L311.291 173.798L312.166 175.924L314.238 176.922L399.793 218.104Z" fill="black" stroke="#BE5D03" stroke-width="12"/>
</g>
</svg>
